<?xml version="1.0" standalone="no"?>
<!DOCTYPE svg PUBLIC "-//W3C//DTD SVG 20010904//EN"
 "http://www.w3.org/TR/2001/REC-SVG-20010904/DTD/svg10.dtd">
<svg version="1.0" xmlns="http://www.w3.org/2000/svg"
 width="24.000000pt" height="24.000000pt" viewBox="0 0 24.000000 24.000000"
 preserveAspectRatio="xMidYMid meet">

<g transform="translate(0.000000,24.000000) scale(0.100000,-0.100000)"
fill="#000000" stroke="none">
<path d="M75 213 c-4 -16 -13 -23 -29 -23 -40 0 -46 -18 -34 -96 6 -38 16 -74
22 -81 14 -16 143 3 167 24 21 18 44 152 29 167 -6 6 -42 16 -80 21 -67 11
-69 11 -75 -12z m98 -50 c4 -2 7 -16 7 -30 0 -24 -2 -25 -37 -19 -21 3 -44 6
-50 6 -8 0 -13 13 -13 31 0 31 0 31 43 24 23 -4 45 -9 50 -12z m-23 -84 c46
-10 61 -21 42 -33 -13 -8 -125 19 -130 32 -5 15 21 15 88 1z m-12 -39 c28 0 6
-10 -42 -19 -29 -5 -49 -5 -52 1 -10 16 18 29 50 23 16 -3 35 -5 44 -5z"/>
</g>
</svg>
