<?xml version="1.0" standalone="no"?>
<!DOCTYPE svg PUBLIC "-//W3C//DTD SVG 20010904//EN"
 "http://www.w3.org/TR/2001/REC-SVG-20010904/DTD/svg10.dtd">
<svg version="1.0" xmlns="http://www.w3.org/2000/svg"
 width="64.000000pt" height="64.000000pt" viewBox="0 0 64.000000 64.000000"
 preserveAspectRatio="xMidYMid meet">

<g transform="translate(0.000000,64.000000) scale(0.100000,-0.100000)"
fill="#000000" stroke="none">
<path d="M269 629 c-201 -31 -318 -250 -234 -437 110 -246 460 -246 570 0 71
157 1 343 -154 411 -65 29 -118 36 -182 26z m3 -206 l48 -47 50 49 50 49 27
-27 27 -27 -49 -50 -49 -50 49 -50 49 -50 -27 -27 -27 -27 -50 49 -50 49 -50
-49 -50 -49 -27 27 -27 27 49 50 49 50 -49 50 -49 50 24 25 c13 14 26 25 29
25 3 0 27 -21 53 -47z"/>
</g>
</svg>
