<?xml version="1.0" standalone="no"?>
<!DOCTYPE svg PUBLIC "-//W3C//DTD SVG 20010904//EN"
 "http://www.w3.org/TR/2001/REC-SVG-20010904/DTD/svg10.dtd">
<svg version="1.0" xmlns="http://www.w3.org/2000/svg"
 width="128.000000pt" height="128.000000pt" viewBox="0 0 128.000000 128.000000"
 preserveAspectRatio="xMidYMid meet">

<g transform="translate(0.000000,128.000000) scale(0.100000,-0.100000)"
fill="#000000" stroke="none">
<path d="M112 1158 c-5 -7 -13 -23 -16 -35 -4 -13 -15 -23 -25 -23 -10 0 -30
-9 -45 -21 l-26 -20 0 -430 c0 -508 -9 -472 118 -467 63 2 77 6 80 20 3 15 -7
18 -75 20 l-78 3 -3 419 c-2 329 0 421 10 428 36 22 38 13 40 -229 3 -204 5
-238 18 -238 13 0 15 37 18 264 1 175 6 269 13 278 15 17 399 19 432 1 46 -24
46 -24 47 -405 l0 -362 -27 15 c-22 11 -76 14 -245 14 l-218 0 0 74 c0 54 -4
75 -14 79 -8 3 -17 3 -20 0 -3 -4 -6 -60 -6 -125 0 -113 1 -120 25 -143 l24
-25 341 0 340 0 0 -25 0 -25 -288 0 c-159 0 -292 -3 -295 -7 -4 -3 -2 -12 4
-20 9 -10 70 -13 295 -13 l283 0 3 -22 c2 -18 8 -22 28 -20 41 5 73 4 103 -3
24 -7 27 -5 27 19 l0 26 130 0 c117 0 132 2 150 20 19 19 20 33 20 449 l0 430
-26 20 c-15 12 -34 21 -44 21 -9 0 -23 14 -31 33 l-14 32 -117 3 c-101 2 -118
0 -118 -13 0 -12 17 -15 98 -15 63 0 102 -4 110 -12 9 -9 12 -106 12 -375 l0
-363 -217 0 c-170 0 -224 -3 -245 -14 l-28 -15 0 362 c1 269 4 366 13 378 23
30 56 39 136 39 65 0 81 3 81 15 0 12 -18 15 -99 15 -84 0 -102 -3 -125 -21
l-26 -20 -26 20 c-25 20 -39 21 -259 21 -174 0 -235 -3 -243 -12z m1126 -522
c1 -293 -1 -413 -9 -422 -8 -10 -41 -14 -125 -14 l-114 0 0 25 c0 24 2 25 75
25 67 0 79 3 100 25 l25 24 0 376 0 376 23 -3 22 -3 3 -409z m-640 -313 l27
-28 -234 -3 c-243 -2 -261 0 -261 39 0 18 11 19 220 19 l221 0 27 -27z m222
-3 l0 -30 -80 0 c-77 0 -80 1 -70 20 16 29 40 39 98 40 51 0 52 0 52 -30z
m120 -65 c0 -89 -1 -95 -18 -86 -11 6 -24 6 -33 0 -26 -17 -29 -9 -29 86 l0
95 40 0 40 0 0 -95z m210 77 c0 -33 -22 -42 -97 -42 l-73 0 0 30 0 30 85 0
c75 0 85 -2 85 -18z"/>
<path d="M196 1051 c-12 -19 24 -32 81 -29 46 2 59 7 61 21 3 15 -5 17 -67 17
-38 0 -72 -4 -75 -9z"/>
<path d="M720 900 l0 -91 103 3 102 3 0 85 0 85 -102 3 -103 3 0 -91z m170 0
l0 -50 -65 0 -65 0 0 50 0 50 65 0 65 0 0 -50z"/>
<path d="M196 972 c-2 -4 -1 -13 3 -20 6 -9 52 -12 182 -10 156 3 174 5 177
21 3 16 -10 17 -177 17 -99 0 -182 -4 -185 -8z"/>
<path d="M950 960 c0 -18 7 -20 64 -20 46 0 65 4 69 14 9 22 -2 26 -70 26 -56
0 -63 -2 -63 -20z"/>
<path d="M197 894 c-19 -19 21 -24 184 -24 152 0 179 2 179 15 0 13 -26 15
-178 15 -98 0 -182 -3 -185 -6z"/>
<path d="M950 885 c0 -13 11 -15 65 -13 87 4 88 22 3 26 -57 2 -68 0 -68 -13z"/>
<path d="M202 817 c-7 -8 -9 -17 -5 -20 3 -4 87 -7 185 -7 166 0 179 1 176 18
-3 15 -21 17 -174 20 -135 2 -174 0 -182 -11z"/>
<path d="M957 823 c-4 -3 -7 -12 -7 -20 0 -9 17 -13 63 -13 69 0 83 6 66 27
-12 13 -110 19 -122 6z"/>
<path d="M195 740 c-16 -25 13 -30 186 -30 167 0 180 1 177 18 -3 15 -21 17
-180 20 -112 1 -179 -1 -183 -8z"/>
<path d="M727 744 c-4 -4 -7 -13 -7 -21 0 -11 34 -13 183 -11 154 3 182 5 182
18 0 13 -27 15 -176 18 -96 1 -178 -1 -182 -4z"/>
<path d="M202 668 c-16 -16 -16 -190 0 -206 17 -17 349 -17 366 0 16 16 16
190 0 206 -17 17 -349 17 -366 0z m338 -103 l0 -75 -155 0 -155 0 0 75 0 75
155 0 155 0 0 -75z"/>
<path d="M720 645 c0 -13 23 -15 180 -13 243 4 245 22 3 26 -160 2 -183 0
-183 -13z"/>
<path d="M722 563 c3 -16 19 -18 183 -18 153 0 180 2 180 15 0 13 -28 15 -183
18 -171 2 -183 1 -180 -15z"/>
<path d="M720 475 c0 -13 23 -15 180 -13 243 4 245 22 3 26 -160 2 -183 0
-183 -13z"/>
</g>
</svg>
